<svg version="1.1" xmlns="http://www.w3.org/2000/svg" xmlns:xlink="http://www.w3.org/1999/xlink" width="58.02395" height="54.66024" viewBox="0,0,58.02395,54.66024"><g transform="translate(-210.98802,-152.66988)"><g data-paper-data="{&quot;isPaintingLayer&quot;:true}" fill-rule="nonzero" stroke="none" stroke-linecap="butt" stroke-linejoin="miter" stroke-miterlimit="10" stroke-dasharray="" stroke-dashoffset="0" style="mix-blend-mode: normal"><path d="M232.25525,173.80421c0.85546,0 1.54895,0.69349 1.54895,1.54895v18.58741c0,0.85546 -0.69349,1.54895 -1.54895,1.54895c-0.85546,0 -1.54895,-0.69349 -1.54895,-1.54895v-18.58741c0,-0.85546 0.69349,-1.54895 1.54895,-1.54895M240.00001,173.80421c0.85546,0 1.54895,0.69349 1.54895,1.54895v18.58741c0,0.85546 -0.69349,1.54895 -1.54895,1.54895c-0.85546,0 -1.54895,-0.69349 -1.54895,-1.54895v-18.58741c0,-0.85546 0.69349,-1.54895 1.54895,-1.54895M249.29372,175.35316c0,-0.85546 -0.69349,-1.54895 -1.54895,-1.54895c-0.85546,0 -1.54895,0.69349 -1.54895,1.54895v18.58741c0,0.85546 0.69349,1.54895 1.54895,1.54895c0.85546,0 1.54895,-0.69349 1.54895,-1.54895z" fill="#969696" stroke-width="1"/><path d="M260.13635,166.05945c0,1.71092 -1.38698,3.0979 -3.0979,3.0979h-1.54895v27.88112c0,3.42185 -2.77396,6.1958 -6.1958,6.1958h-18.58741c-3.42185,0 -6.1958,-2.77396 -6.1958,-6.1958v-27.88112h-1.54895c-1.71092,0 -3.0979,-1.38698 -3.0979,-3.0979v-3.0979c0,-1.71092 1.38698,-3.0979 3.0979,-3.0979h10.84266c0,-1.71092 1.38698,-3.0979 3.0979,-3.0979h6.1958c1.71092,0 3.0979,1.38698 3.0979,3.0979h10.84266c1.71092,0 3.0979,1.38698 3.0979,3.0979zM227.97395,169.15735l-0.36555,0.18278v27.69834c0,1.71092 1.38698,3.0979 3.0979,3.0979h18.58741c1.71092,0 3.0979,-1.38698 3.0979,-3.0979v-27.69834l-0.36555,-0.18278zM222.96155,166.05945h34.07692v-3.0979h-34.07692z" fill="#969696" stroke-width="1"/><path d="M210.98803,207.33012v-54.66024h58.02395v54.66024z" fill="none" stroke-width="0"/></g></g></svg>