<svg version="1.1" xmlns="http://www.w3.org/2000/svg" xmlns:xlink="http://www.w3.org/1999/xlink" width="35.52417" height="7.82436" viewBox="0,0,35.52417,7.82436"><g transform="translate(-222.16223,-176.08782)"><g data-paper-data="{&quot;isPaintingLayer&quot;:true}" fill="#ffffff" fill-rule="nonzero" stroke="none" stroke-width="0" stroke-linecap="butt" stroke-linejoin="miter" stroke-miterlimit="10" stroke-dasharray="" stroke-dashoffset="0" style="mix-blend-mode: normal"><path d="M236.08782,180c0,-2.16064 1.75154,-3.91218 3.91218,-3.91218c2.16064,0 3.91218,1.75154 3.91218,3.91218c0,2.16064 -1.75154,3.91218 -3.91218,3.91218c-2.16064,0 -3.91218,-1.75154 -3.91218,-3.91218z"/><path d="M222.16223,180c0,-2.16064 1.75154,-3.91218 3.91218,-3.91218c2.16064,0 3.91218,1.75154 3.91218,3.91218c0,2.16064 -1.75154,3.91218 -3.91218,3.91218c-2.16064,0 -3.91218,-1.75154 -3.91218,-3.91218z"/><path d="M253.77422,183.91218c-2.16064,0 -3.91218,-1.75154 -3.91218,-3.91218c0,-2.16064 1.75154,-3.91218 3.91218,-3.91218c2.16064,0 3.91218,1.75154 3.91218,3.91218c0,2.16064 -1.75154,3.91218 -3.91218,3.91218z" data-paper-data="{&quot;index&quot;:null}"/></g></g></svg>