<svg version="1.1" xmlns="http://www.w3.org/2000/svg" xmlns:xlink="http://www.w3.org/1999/xlink" width="58.02395" height="66.07137" viewBox="0,0,58.02395,66.07137"><g transform="translate(-210.98803,-141.25875)"><g data-paper-data="{&quot;isPaintingLayer&quot;:true}" fill-rule="nonzero" stroke="none" stroke-linecap="butt" stroke-linejoin="miter" stroke-miterlimit="10" stroke-dasharray="" stroke-dashoffset="0" style="mix-blend-mode: normal"><path d="M232.25525,173.8042c0.85546,0 1.54895,0.69349 1.54895,1.54895v18.58741c0,0.85546 -0.69349,1.54895 -1.54895,1.54895c-0.85546,0 -1.54895,-0.69349 -1.54895,-1.54895v-18.58741c0,-0.85546 0.69349,-1.54895 1.54895,-1.54895M240.00002,173.8042c0.85546,0 1.54895,0.69349 1.54895,1.54895v18.58741c0,0.85546 -0.69349,1.54895 -1.54895,1.54895c-0.85546,0 -1.54895,-0.69349 -1.54895,-1.54895v-18.58741c0,-0.85546 0.69349,-1.54895 1.54895,-1.54895M249.29373,175.35315c0,-0.85546 -0.69349,-1.54895 -1.54895,-1.54895c-0.85546,0 -1.54895,0.69349 -1.54895,1.54895v18.58741c0,0.85546 0.69349,1.54895 1.54895,1.54895c0.85546,0 1.54895,-0.69349 1.54895,-1.54895z" fill="#969696" stroke-width="1"/><path d="M255.48953,169.15734v27.88112c0,3.42185 -2.77396,6.1958 -6.1958,6.1958h-18.58741c-3.42185,0 -6.1958,-2.77396 -6.1958,-6.1958v-27.88112zM227.97396,169.15734l-0.36555,0.18278v27.69834c0,1.71092 1.38698,3.0979 3.0979,3.0979h18.58741c1.71092,0 3.0979,-1.38698 3.0979,-3.0979v-27.69834l-0.36555,-0.18278z" fill="#969696" stroke-width="1"/><path d="M259.86238,172.83375c-1.20981,1.2098 -3.17129,1.2098 -4.38109,0l-1.09527,-1.09527l-21.90547,-21.90546l-1.09527,-1.09528c-1.2098,-1.2098 -1.2098,-3.17129 0,-4.38109l2.19054,-2.19055c1.2098,-1.2098 3.17129,-1.2098 4.38109,0l7.66692,7.66692c1.2098,-1.2098 3.17129,-1.2098 4.38109,0l4.38109,4.38109c1.2098,1.2098 1.2098,3.17129 0,4.38109l7.66692,7.66692c1.20981,1.2098 1.20981,3.17129 0,4.38109zM233.57581,146.54718l24.09602,24.09602l2.19054,-2.19055l-24.09602,-24.09602z" fill="#969696" stroke-width="1"/><path d="M210.98804,207.33012v-54.66024h58.02395v54.66024z" fill="none" stroke-width="0"/></g></g></svg>